<?xml version="1.0" encoding="utf-8"?>
<!-- Generator: Adobe Illustrator 21.1.0, SVG Export Plug-In . SVG Version: 6.00 Build 0)  -->
<svg version="1.1" id="Calque_1" xmlns="http://www.w3.org/2000/svg" xmlns:xlink="http://www.w3.org/1999/xlink" x="0px" y="0px"
	 viewBox="0 0 49 11.2" style="enable-background:new 0 0 49 11.2;" xml:space="preserve">
<style type="text/css">
	.st0{fill:#CC1F1B;}
	.st1{fill:#FFFFFF;}
	.st2{enable-background:new    ;}
	.st3{fill:#00A188;}
	.st4{fill:#1584CE;}
	.st5{fill:#075682;}
	.st6{opacity:0.49;enable-background:new    ;}
	.st7{fill:none;stroke:#000000;stroke-miterlimit:10;}
	.st8{opacity:0.39;enable-background:new    ;}
	.st9{opacity:0.28;enable-background:new    ;}
	.st10{fill:none;stroke:#8E1B1B;stroke-width:0.5;stroke-linecap:round;stroke-linejoin:round;stroke-miterlimit:10;}
	.st11{fill:none;stroke:#000000;stroke-width:0.5;stroke-linecap:round;stroke-linejoin:round;stroke-miterlimit:10;}
	.st12{fill:none;stroke:#000000;stroke-linecap:round;stroke-miterlimit:10;}
	.st13{fill:none;stroke:#000000;stroke-linecap:round;stroke-linejoin:round;stroke-miterlimit:10;}
</style>
<g id="Calque_2">
	<rect x="19" y="-114.5" class="st0" width="12.6" height="12.6"/>
</g>
<g id="Layer_1">
	<g>
		<g>
			<g>
				<g id="Círculo_15_">
					<g>
						<path class="st1" d="M21.3,8.4h-1.4l2.5-5.8h1.2l2.6,5.8h-1.4l-0.5-1.2h-2.5L21.3,8.4z M22.2,6.1h1.6L23,4.2L22.2,6.1z"/>
						<path class="st1" d="M29.4,2.6h-2.7v5.8H28V3.7h1.4c0.7,0,1.1,0.3,1.1,0.9v0.2c0,0.6-0.4,0.9-1.1,0.9h-1v1.1h1
							c1.5,0,2.4-0.7,2.4-1.9V4.5C31.8,3.3,30.9,2.6,29.4,2.6z"/>
						<path class="st1" d="M38.5,2.6h4.4v1.1h-3.1v1.1h2.5V6h-2.5v1.2h3.1v1.1h-4.4V2.6L38.5,2.6z"/>
						<path class="st1" d="M43.7,2.6H45l2.7,3.7V2.6H49v5.8h-1.4L45,4.7v3.6h-1.3V2.6L43.7,2.6z"/>
						<path class="st1" d="M35.3,2.6h-2.7v5.8h1.3V3.7h1.4c0.7,0,1.1,0.3,1.1,0.9v0.2c0,0.6-0.4,0.9-1.1,0.9h-1v1.1h1
							c1.5,0,2.4-0.7,2.4-1.9V4.5C37.7,3.3,36.8,2.6,35.3,2.6z"/>
					</g>
				</g>
			</g>
			<path class="st1" d="M18.6,6.3c-0.3,0.6-0.9,1.1-1.7,1.1c-1.1,0-1.7-1-1.7-1.8c0-1.1,0.8-1.8,1.8-1.8c0.8,0,1.5,0.6,1.7,1.3
				L20,4.7c-0.2-0.6-0.5-1-0.9-1.3l0,0l0,0c-0.5-0.5-1.2-0.7-2-0.7c-0.7,0-1.4,0.3-1.8,0.6C14.6,3.8,14,4.6,14,5.8
				c0,0.4,0,0.7,0.1,1l0,0l0,0c0.1,0.4,1,2.1,2.9,2.1c0.8,0,1.7-0.2,2.2-0.9c0.3-0.3,0.5-0.6,0.7-1L18.6,6.3z"/>
		</g>
		<path class="st1" d="M10.7,3.2V0H0v11h10.7V7.8L8.5,5.5L10.7,3.2z M9.8,8.2v2h-9V0.8h9v2l-1.9,2C7.7,4.7,7.6,4.5,7.4,4.4
			C7.1,4.1,6.7,3.8,6.5,3.7l0,0l0,0C6.4,3.6,6.3,3.6,6.2,3.5C6,3.5,5.9,3.4,5.8,3.4c-0.2,0-0.3-0.1-0.5-0.1c-1.2,0-2.1,0.9-2.1,2.1
			s0.9,2.1,2.1,2.1c0.2,0,0.3,0,0.5-0.1c0.1,0.1,0.2,0,0.2,0l0,0c0.6-0.2,1.1-0.7,1.5-1.1l0,0L7.1,5.7l0,0C6.7,6,6.2,6.5,5.8,6.6
			l0,0c-0.1,0-0.3,0.1-0.4,0.1c-0.7,0-1.3-0.6-1.3-1.3s0.6-1.2,1.2-1.2c0.2,0,0.3,0,0.5,0.1c0.3,0.1,0.8,0.5,1.5,1.2l0,0l0,0
			C7.5,5.6,7.7,5.8,7.9,6L9.8,8.2z"/>
	</g>
	<text transform="matrix(1 0 0 1 2.8125 23.875)" style="font-family:'Break'; font-size:12px;">MZ</text>
	<text transform="matrix(1 0 0 1 29.224 -3.319)" style="font-family:'GeorginaDemo-Regular'; font-size:12px;">MZ</text>
	<g class="st2">
		<path d="M27-19c0,0.1,0.1,0.1,0,0.2c0,0,0,0.1-0.1,0.1s-0.1,0-0.1,0h-1l0,0h-0.1l-0.1-0.1l-2.4-5v4.8c0,0.1,0,0.1-0.1,0.2
			s-0.1,0.1-0.2,0.1h-0.8c-0.1,0-0.1,0-0.2-0.1s-0.1-0.1-0.1-0.2v-7.9c0-0.1,0-0.1,0.1-0.2s0.1-0.1,0.2-0.1H23l0,0h0.1l0.1,0.1
			L27-19z M30-27c0.1,0.1,0.1,0.1,0.1,0.2v7.9c0,0.1,0,0.1-0.1,0.2s-0.1,0.1-0.2,0.1H29c-0.1,0-0.1,0-0.2-0.1s-0.1-0.1-0.1-0.2v-4.8
			l-1.4,2.9l-0.1,0.1c-0.1,0-0.1,0-0.1-0.1L26.5-22c0-0.1,0-0.1,0-0.1v-0.1l2.2-4.7l0,0l0,0c0-0.1,0.1-0.1,0.2-0.1c0,0,0,0,0.1,0
			h0.8C29.9-27.1,30-27,30-27z"/>
		<path d="M45.8-28c0,0,0.1-0.1,0.2-0.1h0.9c0.1,0,0.1,0,0.2,0.1s0.1,0.1,0.1,0.2v6.1c0,0.1,0,0.1-0.1,0.2s-0.1,0.1-0.2,0.1H46
			c-0.1,0-0.2,0-0.3,0l0,0L40-26.3l-1.2-1c-0.1,0-0.1-0.1-0.1-0.2v-0.3c0-0.1,0-0.1,0.1-0.2s0.1-0.1,0.2-0.1h0.6h0.2
			c0.1,0,0.2,0,0.3,0s0.1,0.1,0.2,0.2l5.5,4.6v-4.6C45.8-27.9,45.8-27.9,45.8-28z M40-21.7c0,0-0.1,0.1-0.2,0.1h-0.9
			c-0.1,0-0.1,0-0.2-0.1c0,0-0.1-0.1-0.1-0.2V-26c0-0.1,0-0.1,0.1-0.1s0.1,0,0.1,0l1,0.8c0.1,0,0.1,0.1,0.1,0.2v3.2
			C40-21.8,40-21.7,40-21.7z"/>
	</g>
	<text transform="matrix(1 0 0 1 -22.7061 -48.8129)" style="font-family:'September'; font-size:12px;">MZ</text>
	<path d="M41.3-95.1h-2.2c0,0-0.1,0-0.1-0.1v-12.3c0,0,0-0.1,0.1-0.1c0,0,0,0,0.1,0l7.4,12.3v0.1h-0.1l-7.2-12.1v12h2.1v-7.3
		c0,0,0-0.1,0.1-0.1s0.1,0,0.1,0.1L41.3-95.1C41.4-95.1,41.4-95.1,41.3-95.1z M46.4-98.8l-5.1-8.6v-0.1h0.1l5.2,8.6l0,0
		C46.5-98.8,46.5-98.8,46.4-98.8L46.4-98.8L46.4-98.8z M51.4-95.1L51.4-95.1c-0.1-0.1-0.1-12.2-0.1-12.2l-4.8,8.4c0,0,0,0-0.1,0V-99
		l4.9-8.6c0,0,0,0,0.1,0c0,0,0.1,0,0.1,0.1L51.4-95.1C51.5-95.1,51.5-95.1,51.4-95.1z"/>
	<rect x="49.1" y="-101.8" width="0.1" height="6.7"/>
	<rect x="55.9" y="-123" class="st3" width="2.4" height="5.8"/>
	<rect x="43.3" y="-110.5" transform="matrix(0.8575 -0.5145 0.5145 0.8575 58.5771 7.9826)" width="0.8" height="17.5"/>
	
		<rect x="8.9" y="-135.3" transform="matrix(0.8575 -0.5145 0.5145 0.8575 66.4401 -13.2506)" class="st4" width="0.8" height="17.5"/>
	
		<rect x="-12.9" y="-136.4" transform="matrix(0.8575 -0.5145 0.5145 0.8575 58.9676 -23.0093)" class="st4" width="1.7" height="36.9"/>
	<path d="M14.4-115.3L14.4-115.3L9.6-107l-5-8.3H2.3v12.4c0,0,0,0.1,0.1,0.1h2.2c0,0,0.1,0,0.1-0.1v-7.3c0,0,0-0.1-0.1-0.1
		s-0.1,0-0.1,0.1v7.3H2.4v-12l7.2,12.1c0,0,0.1,0.1,0.1,0c0,0,0,0,0-0.1v0.1H12h0.1h0.2v-4.8h-0.1v4.7l-2.4-4l4.6-8.1
		c0,0,0,12,0,12.1s0.1,0.1,0.1,0.1s0.1,0,0.1-0.1L14.4-115.3C14.5-115.3,14.5-115.3,14.4-115.3z"/>
	<polygon points="52.2,-153.3 52,-153.3 52,-153.3 47.2,-145.1 42.5,-153.3 39.6,-153.3 39.6,-153.3 39.6,-153 39.6,-140.7 
		39.6,-140.7 39.6,-140.7 41.8,-140.7 42,-140.7 42,-140.7 42,-148.2 41.8,-148.2 41.8,-140.7 39.6,-140.7 39.6,-152.9 46.8,-140.7 
		49.8,-140.7 47.4,-144.9 52,-152.9 52,-140.7 52.2,-140.7 52.2,-140.7 	"/>
	<rect x="49.8" y="-145.4" width="0.1" height="4.8"/>
	<polygon class="st5" points="-172.8,-115.7 -183.7,-133.7 -168.7,-133.7 -153.7,-133.7 	"/>
	<rect x="-81" y="-106.8" class="st5" width="10.3" height="18"/>
	<polygon class="st5" points="-130.4,-83.5 -123.7,-69.4 -138.7,-69.4 -153.7,-69.4 	"/>
	<polygon class="st5" points="-173.5,-47.1 -162.5,-29.1 -177.5,-29.1 -192.5,-29.1 	"/>
	<polygon class="st5" points="-111,-125.9 -117.7,-140 -102.7,-140 -87.7,-140 	"/>
	<polygon class="st5" points="-58.3,-96.4 -64.5,-101.6 -70.7,-106.8 -58.3,-106.8 -45.8,-106.8 -52,-101.6 	"/>
	<polygon class="st5" points="-47.1,-81.2 -40.9,-76 -34.7,-70.8 -47.1,-70.8 -59.5,-70.8 -53.3,-76 	"/>
</g>
<g>
	<g>
		<g>
			<g id="Círculo_1_">
				<g>
					<path class="st1" d="M29.3,68.4h-1.4l2.5-5.8h1.2l2.6,5.8h-1.4l-0.5-1.2h-2.5L29.3,68.4z M30.2,66.1h1.6L31,64.2L30.2,66.1z"/>
					<path class="st1" d="M37.4,62.6h-2.7v5.8H36v-4.7h1.4c0.7,0,1.1,0.3,1.1,0.9v0.2c0,0.6-0.4,0.9-1.1,0.9h-1v1.1h1
						c1.5,0,2.4-0.7,2.4-1.9v-0.4C39.8,63.3,38.9,62.6,37.4,62.6z"/>
					<path class="st1" d="M46.5,62.6h4.4v1.1h-3.1v1.1h2.5V66h-2.5v1.2h3.1v1.1h-4.4V62.6L46.5,62.6z"/>
					<path class="st1" d="M51.7,62.6H53l2.7,3.7v-3.7H57v5.8h-1.4L53,64.7v3.6h-1.3V62.6L51.7,62.6z"/>
					<path class="st1" d="M43.3,62.6h-2.7v5.8h1.3v-4.7h1.4c0.7,0,1.1,0.3,1.1,0.9v0.2c0,0.6-0.4,0.9-1.1,0.9h-1v1.1h1
						c1.5,0,2.4-0.7,2.4-1.9v-0.4C45.7,63.3,44.8,62.6,43.3,62.6z"/>
				</g>
			</g>
		</g>
		<path class="st1" d="M26.6,66.3c-0.3,0.6-0.9,1.1-1.7,1.1c-1.1,0-1.7-1-1.7-1.8c0-1.1,0.8-1.8,1.8-1.8c0.8,0,1.5,0.6,1.7,1.3
			l1.3-0.4c-0.2-0.6-0.5-1-0.9-1.3l0,0l0,0c-0.5-0.5-1.2-0.7-2-0.7c-0.7,0-1.4,0.3-1.8,0.6c-0.7,0.5-1.3,1.3-1.3,2.5
			c0,0.4,0,0.7,0.1,1l0,0l0,0c0.1,0.4,1,2.1,2.9,2.1c0.8,0,1.7-0.2,2.2-0.9c0.3-0.3,0.5-0.6,0.7-1L26.6,66.3z"/>
	</g>
	<path class="st1" d="M18.7,63.2V60H8v11h10.7v-3.2l-2.2-2.3L18.7,63.2z M17.8,68.2v2h-9v-9.4h9v2l-1.9,2c-0.2-0.1-0.3-0.3-0.5-0.4
		c-0.3-0.3-0.7-0.6-0.9-0.7l0,0l0,0c-0.1-0.1-0.2-0.1-0.3-0.2c-0.2,0-0.3-0.1-0.4-0.1c-0.2,0-0.3-0.1-0.5-0.1
		c-1.2,0-2.1,0.9-2.1,2.1s0.9,2.1,2.1,2.1c0.2,0,0.3,0,0.5-0.1c0.1,0.1,0.2,0,0.2,0l0,0c0.6-0.2,1.1-0.7,1.5-1.1l0,0l-0.4-0.6l0,0
		c-0.4,0.3-0.9,0.8-1.3,0.9l0,0c-0.1,0-0.3,0.1-0.4,0.1c-0.7,0-1.3-0.6-1.3-1.3c0-0.7,0.6-1.2,1.2-1.2c0.2,0,0.3,0,0.5,0.1
		c0.3,0.1,0.8,0.5,1.5,1.2l0,0l0,0c0.2,0.1,0.4,0.3,0.6,0.5L17.8,68.2z"/>
</g>
<rect x="-48.4" y="3.5" class="st1" width="12" height="12"/>
<path d="M-24.6,12.8V9.6h-10.7v11h10.7v-3.2l-2.2-2.3L-24.6,12.8z M-25.5,17.8v2h-9v-9.4h9v2l-1.9,2l-0.5-0.4l-0.9-0.7
	c-0.2-0.1-0.5-0.4-1.2-0.4c-1.2,0-2.1,0.9-2.1,2.1s0.9,2.1,2.1,2.1c0.2,0,0.7-0.1,0.7-0.1c0.6-0.2,1.1-0.7,1.5-1.1l-0.4-0.6
	c-0.4,0.3-1,1-1.7,1s-1.3-0.6-1.3-1.3s0.6-1.2,1.2-1.2c0.4,0,0.8,0.1,0.9,0.2C-28.8,14.2-25.5,17.8-25.5,17.8z"/>
<path d="M-28.9,8.9c-1.4,0-2.5-1.1-2.5-2.5s1.1-2.5,2.5-2.5s2.5,1.1,2.5,2.5S-27.5,8.9-28.9,8.9z M-28.9,4.9c-0.8,0-1.5,0.7-1.5,1.5
	s0.7,1.5,1.5,1.5s1.5-0.7,1.5-1.5S-28.1,4.9-28.9,4.9z"/>
<path d="M-30.2-14.4c-1,1-1,2.6,0,3.5s2.6,1,3.5,0c0.5-0.5,1.8-1.8,1.8-1.8s-1.3-1.3-1.8-1.8C-27.7-15.3-29.3-15.3-30.2-14.4z
	 M-27.4-11.5c-0.3,0.3-0.6,0.4-1.1,0.4c-0.8,0-1.5-0.7-1.5-1.5s0.7-1.5,1.5-1.5c0.4,0,0.8,0.2,1.1,0.4c0.3,0.3,1.1,1.1,1.1,1.1
	S-27.1-11.8-27.4-11.5z"/>
<polygon points="-22.9,-18.6 -33.9,-18.6 -33.9,-17.6 -22.9,-17.6 -22.9,-16 -25.7,-13.3 -26.4,-12.6 -25.7,-11.9 -22.9,-9.2 
	-22.9,-7.6 -33.9,-7.6 -33.9,-6.6 -22.9,-6.6 -21.9,-6.6 -21.9,-7.6 -21.9,-9.6 -21.9,-9.6 -24.9,-12.6 -21.9,-15.6 -21.9,-15.6 
	-21.9,-17.6 -21.9,-18.6 "/>
<path d="M-60.5,1.4c-1,1-1,2.6,0,3.5s2.6,1,3.5,0c0.5-0.5,1.8-1.8,1.8-1.8s-1.3-1.3-1.8-1.8C-58,0.4-59.5,0.4-60.5,1.4z M-57.7,4.2
	c-0.3,0.3-0.6,0.4-1.1,0.4c-0.8,0-1.5-0.7-1.5-1.5s0.7-1.5,1.5-1.5c0.4,0,0.8,0.2,1.1,0.4c0.3,0.3,1.1,1.1,1.1,1.1
	S-57.4,3.9-57.7,4.2z"/>
<polygon points="-53.2,-2.8 -64.2,-2.8 -64.2,-1.8 -53.2,-1.8 -53.2,-0.3 -55.9,2.4 -56.6,3.2 -55.9,3.9 -53.2,6.6 -53.2,8.2 
	-64.2,8.2 -64.2,9.2 -53.2,9.2 -52.2,9.2 -52.2,8.2 -52.2,6.2 -52.2,6.2 -55.2,3.2 -52.2,0.2 -52.2,0.2 -52.2,-1.8 -52.2,-2.8 "/>
<path d="M-57.5,15.1V9.9l4.5,2.6L-57.5,15.1z M-56.5,11.6v1.7l1.5-0.9L-56.5,11.6z"/>
<rect x="-25.1" y="22.7" transform="matrix(0.7647 -0.6444 0.6444 0.7647 -19.2778 -6.3495)" class="st6" width="13.5" height="1"/>
<rect x="-14.3" y="11.3" transform="matrix(0.7071 -0.7071 0.7071 0.7071 -16.8286 -4.4557)" class="st6" width="1" height="13.5"/>
<polygon class="st7" points="-58.2,25.6 -60.4,23.9 -60.4,27.4 "/>
<rect x="-34.1" y="-6.3" transform="matrix(0.5 -0.866 0.866 0.5 -17.3907 -28.7375)" class="st6" width="1" height="13.9"/>
<path d="M-34.5,33.3v-6.8l4.9,3.4L-34.5,33.3z M-33.5,28.4v3l2.1-1.5L-33.5,28.4z"/>
<rect x="-33.2" y="4" class="st8" width="1" height="2.8"/>
<rect x="-88.9" y="-27.1" width="12" height="1"/>
<rect x="-88.9" y="-17.5" width="12" height="1"/>
<rect x="-88.6" y="-24.6" transform="matrix(0.866 -0.5 0.5 0.866 1.118 -43.9727)" class="st6" width="14.2" height="1"/>
<polygon class="st7" points="-85.4,-21.8 -88.4,-23.5 -88.4,-20.1 "/>
<rect x="-81.2" y="-26.2" transform="matrix(0.5 -0.866 0.866 0.5 -23.7978 -79.4869)" class="st6" width="1" height="14.2"/>
<polygon class="st6" points="-34.5,23.9 -34.5,24.9 -24.2,24.9 -31.4,29.9 -24.2,34.9 -34.5,34.9 -34.5,35.9 -22.5,35.9 -22.5,34.9 
	-22.5,34.9 -29.6,29.9 -22.5,24.9 -22.5,24.9 -22.5,23.9 "/>
<polygon points="1.9,28.9 1.9,27.9 -10.1,27.9 -10.1,28.9 0.1,28.9 -6.1,33.3 -10.1,30.5 -10.1,37.3 -6.3,34.7 -7.2,34.1 -9.1,35.4 
	-9.1,32.4 0.1,38.9 -10.1,38.9 -10.1,39.9 1.9,39.9 1.9,38.9 1.9,38.9 -5.3,33.9 -5.2,33.9 -5.3,33.9 "/>
<path d="M-73.9,31.2l3.3,3.3c0.2,0.2,0.5,0.1,0.5-0.2v-6.6c0-0.3-0.3-0.4-0.5-0.2l-3.3,3.3C-74,30.9-74,31.1-73.9,31.2z"/>
<polygon class="st9" points="-15.6,14 -18.7,1.6 -28,10.9 "/>
<polygon class="st8" points="-95.7,4.6 -84.8,11.1 -84.8,-2 "/>
<path class="st10" d="M-34.5,25.2"/>
<polyline class="st11" points="-69.9,37.4 -79,28.3 -79,35 -77.1,33.1 "/>
<line class="st11" x1="-52" y1="17.8" x2="-53.9" y2="19.8"/>
<g>
	<polyline class="st12" points="-38,14.2 -46.8,5.6 -46.8,13.5 -44.9,11.6 	"/>
</g>
<g>
	<polyline class="st13" points="-86.3,27.3 -95.1,18.7 -95.1,25.8 -93.2,23.9 	"/>
	<path d="M-88.1,22.4l3.6,3.6c0.3,0.3,0.8,0.1,0.8-0.3v-7.2c0-0.4-0.5-0.6-0.8-0.3l-3.6,3.6C-88.3,22-88.3,22.2-88.1,22.4z"/>
	<line class="st12" x1="-92.9" y1="27.3" x2="-91.2" y2="25.5"/>
</g>
<polygon points="-41.6,8.4 -37.5,12.4 -37.5,4.4 "/>
<g>
	<path d="M-47.8-16c-0.1,0-0.3,0-0.3-0.1l-8-7.8v5.5l1-1c0.2-0.2,0.5-0.2,0.7,0s0.2,0.5,0,0.7l-2.8,2.8v-10.3l9.6,9.4
		c0.2,0.2,0.2,0.5,0,0.7C-47.6-16.1-47.7-16-47.8-16z"/>
</g>
<polygon points="-51.4,-22.3 -47.4,-18.3 -47.4,-26.3 "/>
<g>
	<polygon points="-80.9,-2.3 -80.9,-12.6 -71.2,-3.2 -71.9,-2.5 -79.9,-10.2 -79.9,-4.7 -78.8,-5.8 -78.1,-5.1 	"/>
</g>
<polygon points="-75.1,-8.6 -71.1,-4.6 -71.1,-12.6 "/>
</svg>
