<?xml version="1.0" encoding="utf-8"?>
<!-- Generator: Adobe Illustrator 17.0.0, SVG Export Plug-In . SVG Version: 6.00 Build 0)  -->
<!DOCTYPE svg PUBLIC "-//W3C//DTD SVG 1.1//EN" "http://www.w3.org/Graphics/SVG/1.1/DTD/svg11.dtd">
<svg version="1.1" id="Layer_1" xmlns="http://www.w3.org/2000/svg" xmlns:xlink="http://www.w3.org/1999/xlink" x="0px" y="0px"
	 width="49.017px" height="11.194px" viewBox="127.832 -63.361 49.017 11.194"
	 enable-background="new 127.832 -63.361 49.017 11.194" xml:space="preserve">
<g>
	<g>
		<g>
			<g id="Círculo_15_">
				<g>
					<path fill="#FFFFFF" d="M149.086-55h-1.438l2.547-5.752h1.208L153.966-55h-1.438l-0.493-1.183h-2.465L149.086-55z
						 M150.006-57.243h1.586l-0.797-1.923L150.006-57.243z"/>
					<path fill="#FFFFFF" d="M157.195-60.752H154.5V-55h1.307v-4.618h1.389c0.715,0,1.109,0.296,1.109,0.871v0.156
						c0,0.575-0.395,0.888-1.109,0.888h-0.953v1.118h0.953c1.487,0,2.416-0.739,2.416-1.906v-0.353
						C159.611-60.012,158.683-60.752,157.195-60.752z"/>
					<path fill="#FFFFFF" d="M166.331-60.752h4.363v1.134h-3.057v1.142h2.547v1.117h-2.547v1.233h3.13V-55h-4.437L166.331-60.752
						L166.331-60.752z"/>
					<path fill="#FFFFFF" d="M171.557-60.752h1.331l2.703,3.681l-0.041-3.681h1.298V-55h-1.356l-2.679-3.64l0.033,3.64h-1.29
						L171.557-60.752L171.557-60.752z"/>
					<path fill="#FFFFFF" d="M163.111-60.752h-2.695V-55h1.307v-4.618h1.389c0.715,0,1.109,0.296,1.109,0.871v0.156
						c0,0.575-0.394,0.888-1.109,0.888h-0.953v1.118h0.953c1.488,0,2.416-0.739,2.416-1.906v-0.353
						C165.526-60.012,164.598-60.752,163.111-60.752z"/>
				</g>
			</g>
		</g>
		<path fill="#FFFFFF" d="M146.399-57.104c-0.293,0.647-0.943,1.081-1.686,1.081c-1.15,0-1.739-1.016-1.739-1.84
			c0-1.052,0.766-1.843,1.828-1.843c0.808,0,1.455,0.604,1.679,1.303l1.252-0.433c-0.165-0.551-0.475-1.005-0.877-1.347
			c-0.004-0.003-0.008-0.007-0.012-0.01c-0.01-0.008-0.019-0.016-0.029-0.024c-0.539-0.475-1.247-0.71-2.044-0.71
			c-0.718,0-1.38,0.251-1.803,0.571c-0.742,0.511-1.286,1.35-1.31,2.461c-0.008,0.368,0.046,0.708,0.147,1.017l0,0
			c0,0.001,0,0.001,0.001,0.002c0.142,0.431,0.953,2.078,2.933,2.078c0.797,0,1.663-0.222,2.237-0.869
			c0.284-0.276,0.51-0.616,0.664-1.012L146.399-57.104z"/>
	</g>
	<path fill="#FFFFFF" d="M138.507-60.161l-0.005-3.2h-10.671v10.996h10.671l0-3.202l-2.16-2.329L138.507-60.161z M137.654-55.192
		v1.979H128.7v-9.3h8.954v2.017l-1.903,1.989c-0.176-0.17-0.349-0.329-0.516-0.474c-0.35-0.305-0.653-0.533-0.923-0.696
		l-0.029,0.006l-0.009-0.03c-0.087-0.054-0.181-0.102-0.277-0.143c-0.127-0.057-0.247-0.095-0.353-0.114
		c-0.153-0.035-0.31-0.053-0.466-0.053c-1.153,0-2.121,0.944-2.121,2.098c0,1.153,0.948,2.122,2.101,2.122
		c0.155,0,0.311-0.017,0.46-0.051c0.071-0.015,0.251-0.073,0.258-0.076l0.042-0.017c0.569-0.229,1.107-0.661,1.531-1.062l0.02-0.019
		l-0.583-0.624l-0.026,0.024c-0.306,0.285-0.807,0.712-1.254,0.888l-0.017,0.006c-0.136,0.05-0.28,0.075-0.427,0.075
		c-0.686,0-1.258-0.58-1.258-1.266c0-0.686,0.558-1.243,1.243-1.243c0.155,0,0.332,0.034,0.474,0.089
		c0.287,0.125,0.812,0.493,1.505,1.168l0,0.001l0.028,0.026c0.149,0.139,0.331,0.318,0.54,0.53L137.654-55.192z"/>
</g>
</svg>
