<?xml version="1.0" encoding="utf-8"?>
<!-- Generator: Adobe Illustrator 21.1.0, SVG Export Plug-In . SVG Version: 6.00 Build 0)  -->
<svg version="1.1" id="Calque_1" xmlns="http://www.w3.org/2000/svg" xmlns:xlink="http://www.w3.org/1999/xlink" x="0px" y="0px"
	 viewBox="0 0 66.8 11.2" style="enable-background:new 0 0 66.8 11.2;" xml:space="preserve">
<style type="text/css">
	.st0{fill:#FFFFFF;}
</style>
<g>
	<path class="st0" d="M16.5,1.9h2.2l1.7,4.9h0L22,1.9h2.2v7.1h-1.5V4h0L21,9.1h-1.2l-1.7-5h0v5h-1.5V1.9z"/>
	<path class="st0" d="M25.1,7.8L29,3.3h-3.5V1.9H31v1.2l-3.8,4.6h3.9v1.3h-6V7.8z"/>
	<path class="st0" d="M38.4,8.4L38.4,8.4C38,9,37.5,9.2,36.8,9.2c-1.6,0-2.3-1.3-2.3-2.8c0-1.4,0.8-2.7,2.3-2.7
		c0.6,0,1.2,0.3,1.5,0.8h0V1.9h1.4v7.1h-1.3V8.4z M37.2,4.8c-0.9,0-1.2,0.8-1.2,1.6c0,0.8,0.4,1.7,1.2,1.7c0.9,0,1.2-0.8,1.2-1.7
		C38.4,5.6,38.1,4.8,37.2,4.8z"/>
	<path class="st0" d="M42,6.8c0,0.9,0.5,1.3,1.3,1.3c0.6,0,1-0.3,1.1-0.7h1.2c-0.4,1.2-1.2,1.7-2.4,1.7c-1.6,0-2.6-1.1-2.6-2.7
		c0-1.5,1.1-2.7,2.6-2.7c1.8,0,2.6,1.5,2.5,3.1H42z M44.3,5.9c-0.1-0.7-0.4-1.1-1.1-1.1c-0.9,0-1.2,0.7-1.2,1.1H44.3z"/>
	<path class="st0" d="M47.7,7.4c0,0.6,0.5,0.9,1.1,0.9c0.4,0,0.9-0.2,0.9-0.7c0-0.4-0.6-0.6-1.6-0.8c-0.8-0.2-1.6-0.5-1.6-1.4
		c0-1.3,1.1-1.7,2.2-1.7c1.1,0,2.2,0.4,2.3,1.6h-1.3c0-0.5-0.5-0.7-1-0.7c-0.3,0-0.8,0.1-0.8,0.5c0,0.5,0.8,0.6,1.6,0.8
		c0.8,0.2,1.6,0.5,1.6,1.4c0,1.4-1.2,1.8-2.4,1.8c-1.2,0-2.4-0.5-2.4-1.8H47.7z"/>
	<path class="st0" d="M53.4,3.1H52V1.9h1.4V3.1z M52,3.9h1.4v5.2H52V3.9z"/>
	<path class="st0" d="M59.5,8.7c0,0.8-0.3,2.3-2.7,2.3c-1,0-2.2-0.5-2.3-1.7h1.4c0.1,0.5,0.6,0.7,1.1,0.7c0.8,0,1.1-0.5,1.1-1.3V8.1
		h0c-0.3,0.5-0.9,0.8-1.5,0.8c-1.5,0-2.2-1.2-2.2-2.6c0-1.3,0.8-2.6,2.2-2.6c0.7,0,1.2,0.2,1.5,0.8h0V3.9h1.3V8.7z M58.1,6.4
		c0-0.8-0.3-1.6-1.2-1.6c-0.8,0-1.1,0.7-1.1,1.5c0,0.7,0.3,1.5,1.1,1.5C57.7,7.9,58.1,7.2,58.1,6.4z"/>
	<path class="st0" d="M60.6,3.9H62v0.7h0c0.4-0.6,1-0.9,1.6-0.9c1.5,0,1.9,0.8,1.9,2.1v3.2H64V6.2c0-0.8-0.3-1.3-0.9-1.3
		c-0.8,0-1.1,0.4-1.1,1.5v2.7h-1.4V3.9z"/>
</g>
<g>
	<g>
		<path class="st0" d="M10.1,10.7c-0.1,0-0.3,0-0.3-0.1L1.8,3v5.3l1-1c0.2-0.2,0.5-0.2,0.7,0s0.2,0.5,0,0.7l-2.8,2.8V0.5l9.6,9.4
			c0.2,0.2,0.2,0.5,0,0.7C10.4,10.7,10.3,10.7,10.1,10.7z"/>
	</g>
	<polygon class="st0" points="6.6,4.5 10.6,8.4 10.6,0.5 	"/>
</g>
</svg>
